# xmcd
#
# Track frame offsets:
#	150
#	45501
#	74575
#	81064
#	106521
#	111379
#	134314
#	182587
#	187390
#	201200
#
# Disc length: 2762 seconds
# Revision: 0
# Processed by: cddbd v1.5.2PL0 Copyright (c) Steve Scherf et al.
# Submitted via: dBpowerAMP V12.0
#
DISCID=8d0ac80a
DTITLE=Hale Dwoskin - The Inner Circle Retreat 02 CD 04
DYEAR=2007
DGENRE=Speech
TTITLE0=Cleanup Release
TTITLE1=The Bla Exercise Negative Version
TTITLE2=Explanation - Questions about the Exercise
TTITLE3=Cleanup Release on the Exercise
TTITLE4=The Bla Exercise Positive Version
TTITLE5=Cleanup Release
TTITLE6=Labeling a Feeling - Aliveness in Suffering
TTITLE7=Letting Go of the Positive
TTITLE8=Sharing Your Story
TTITLE9=It Is Just a Story
EXTD=
EXTT0=
EXTT1=
EXTT2=
EXTT3=
EXTT4=
EXTT5=
EXTT6=
EXTT7=
EXTT8=
EXTT9=
PLAYORDER=
